<?xml version="1.0" encoding="UTF-8" standalone="no"?>
<svg
   xmlns:dc="http://purl.org/dc/elements/1.1/"
   xmlns:cc="http://creativecommons.org/ns#"
   xmlns:rdf="http://www.w3.org/1999/02/22-rdf-syntax-ns#"
   xmlns:svg="http://www.w3.org/2000/svg"
   xmlns="http://www.w3.org/2000/svg"
   xmlns:sodipodi="http://sodipodi.sourceforge.net/DTD/sodipodi-0.dtd"
   xmlns:inkscape="http://www.inkscape.org/namespaces/inkscape"
   width="552.01648pt"
   height="559.9325pt"
   version="1.1"
   viewBox="0 0 552.01648 559.9325"
   id="svg146"
   sodipodi:docname="noun-france-1009184.svg"
   inkscape:version="0.92.3 (2405546, 2018-03-11)">
  <metadata
     id="metadata150">
    <rdf:RDF>
      <cc:Work
         rdf:about="">
        <dc:format>image/svg+xml</dc:format>
        <dc:type
           rdf:resource="http://purl.org/dc/dcmitype/StillImage" />
        <dc:title></dc:title>
      </cc:Work>
    </rdf:RDF>
  </metadata>
  <sodipodi:namedview
     pagecolor="#ffffff"
     bordercolor="#666666"
     borderopacity="1"
     objecttolerance="10"
     gridtolerance="10"
     guidetolerance="10"
     inkscape:pageopacity="0"
     inkscape:pageshadow="2"
     inkscape:window-width="680"
     inkscape:window-height="480"
     id="namedview148"
     showgrid="false"
     fit-margin-top="0"
     fit-margin-left="0"
     fit-margin-right="0"
     fit-margin-bottom="0"
     inkscape:zoom="0.25285714"
     inkscape:cx="368.71186"
     inkscape:cy="280.00164"
     inkscape:window-x="0"
     inkscape:window-y="0"
     inkscape:window-maximized="0"
     inkscape:current-layer="svg146" />
  <defs
     id="defs68">
    <symbol
       id="v"
       overflow="visible"
       style="overflow:visible">
      <path
         d="m 22.109,-1.3281 c -1.1367,0.59375 -2.3242,1.043 -3.5625,1.3438 -1.2422,0.30078 -2.5312,0.45312 -3.875,0.45312 -4,0 -7.1719,-1.1172 -9.5156,-3.3594 -2.3438,-2.2383 -3.5156,-5.2734 -3.5156,-9.1094 0,-3.8438 1.1719,-6.8828 3.5156,-9.125 2.3438,-2.25 5.5156,-3.375 9.5156,-3.375 1.3438,0 2.6328,0.15234 3.875,0.45312 1.2383,0.30469 2.4258,0.75 3.5625,1.3438 v 4.9844 c -1.1484,-0.78906 -2.2812,-1.3672 -3.4062,-1.7344 -1.1172,-0.36328 -2.293,-0.54688 -3.5312,-0.54688 -2.2109,0 -3.9492,0.71094 -5.2188,2.125 -1.2617,1.418 -1.8906,3.375 -1.8906,5.875 0,2.4805 0.62891,4.4297 1.8906,5.8438 1.2695,1.418 3.0078,2.125 5.2188,2.125 1.2383,0 2.4141,-0.17969 3.5312,-0.54688 1.125,-0.36328 2.2578,-0.9375 3.4062,-1.7188 z"
         id="path2"
         inkscape:connector-curvature="0" />
    </symbol>
    <symbol
       id="b"
       overflow="visible"
       style="overflow:visible">
      <path
         d="m 16.172,-13.125 c -0.5,-0.23828 -1,-0.41406 -1.5,-0.53125 -0.5,-0.11328 -1,-0.17188 -1.5,-0.17188 -1.4922,0 -2.6367,0.48047 -3.4375,1.4375 -0.79297,0.94922 -1.1875,2.3086 -1.1875,4.0781 V -3e-5 H 2.7658 v -18.047 H 8.547 v 2.9688 c 0.73828,-1.1875 1.5859,-2.0508 2.5469,-2.5938 0.95703,-0.53906 2.1094,-0.8125 3.4531,-0.8125 0.19531,0 0.40625,0.01172 0.625,0.03125 0.22656,0.01172 0.55469,0.04297 0.98438,0.09375 z"
         id="path5"
         inkscape:connector-curvature="0" />
    </symbol>
    <symbol
       id="a"
       overflow="visible"
       style="overflow:visible">
      <path
         d="m 20.781,-9.0781 v 1.6562 H 7.297 c 0.14453,1.3555 0.63281,2.3711 1.4688,3.0469 0.83203,0.66797 2.0039,1 3.5156,1 1.207,0 2.4453,-0.17578 3.7188,-0.53125 1.2812,-0.36328 2.5938,-0.91016 3.9375,-1.6406 v 4.4531 c -1.3672,0.51172 -2.7305,0.89844 -4.0938,1.1562 -1.3672,0.26953 -2.7305,0.40625 -4.0938,0.40625 -3.2734,0 -5.8125,-0.82812 -7.625,-2.4844 C 2.3204,-3.6798 1.422,-6.0079 1.422,-9.0001 c 0,-2.9453 0.88281,-5.2656 2.6562,-6.9531 1.7812,-1.6875 4.2266,-2.5312 7.3438,-2.5312 2.832,0 5.0977,0.85547 6.7969,2.5625 1.707,1.7109 2.5625,3.9922 2.5625,6.8438 z m -5.9219,-1.9062 c 0,-1.1016 -0.32422,-1.9883 -0.96875,-2.6562 -0.63672,-0.66406 -1.4688,-1 -2.5,-1 -1.1172,0 -2.0234,0.3125 -2.7188,0.9375 -0.69922,0.625 -1.1367,1.5312 -1.3125,2.7188 z"
         id="path8"
         inkscape:connector-curvature="0" />
    </symbol>
    <symbol
       id="f"
       overflow="visible"
       style="overflow:visible">
      <path
         d="m 10.859,-8.125 c -1.1992,0 -2.1055,0.21094 -2.7188,0.625 -0.60547,0.40625 -0.90625,1.0078 -0.90625,1.7969 0,0.73047 0.24219,1.3047 0.73438,1.7188 0.48828,0.40625 1.1641,0.60938 2.0312,0.60938 1.0938,0 2.0078,-0.38281 2.75,-1.1562 0.73828,-0.78125 1.1094,-1.7539 1.1094,-2.9219 V -8.1249 Z m 8.8125,-2.1719 V 10e-5 H 13.859 v -2.6719 c -0.77344,1.0938 -1.6406,1.8906 -2.6094,2.3906 -0.9688,0.5 -2.1484,0.75 -3.5312,0.75 -1.8672,0 -3.3828,-0.53906 -4.5469,-1.625 -1.168,-1.0938 -1.75,-2.5156 -1.75,-4.2656 0,-2.1133 0.72266,-3.6602 2.1719,-4.6406 1.457,-0.98828 3.7422,-1.4844 6.8594,-1.4844 h 3.4062 v -0.45312 c 0,-0.91406 -0.35938,-1.582 -1.0781,-2 -0.71875,-0.42578 -1.8438,-0.64062 -3.375,-0.64062 -1.2305,0 -2.3828,0.125 -3.4531,0.375 -1.0625,0.24219 -2.0469,0.60547 -2.9531,1.0938 v -4.3906 c 1.2266,-0.30078 2.4688,-0.53125 3.7188,-0.6875 1.25,-0.15625 2.4922,-0.23438 3.7344,-0.23438 3.2578,0 5.6094,0.64844 7.0469,1.9375 1.4453,1.2812 2.1719,3.3672 2.1719,6.25 z"
         id="path11"
         inkscape:connector-curvature="0" />
    </symbol>
    <symbol
       id="c"
       overflow="visible"
       style="overflow:visible">
      <path
         d="m 9.0781,-23.172 v 5.125 h 5.9375 v 4.125 H 9.0781 v 7.6562 c 0,0.83594 0.16406,1.4023 0.5,1.7031 0.33203,0.29297 0.98828,0.4375 1.9688,0.4375 h 2.9688 V -2e-4 H 9.5782 C 7.297,-2e-4 5.6759,-0.47286 4.7188,-1.4221 3.76958,-2.37913 3.2969,-3.9924 3.2969,-6.2659 v -7.6562 H 0.4375 v -4.125 h 2.8594 v -5.125 z"
         id="path14"
         inkscape:connector-curvature="0" />
    </symbol>
    <symbol
       id="k"
       overflow="visible"
       style="overflow:visible">
      <path
         d="m 15.047,-15.406 v -9.6719 h 5.7969 V 10e-5 H 15.047 v -2.6094 c -0.79297,1.0625 -1.668,1.8438 -2.625,2.3438 -0.96094,0.48828 -2.0625,0.73438 -3.3125,0.73438 -2.2305,0 -4.0586,-0.87891 -5.4844,-2.6406 -1.4297,-1.7695 -2.1406,-4.0469 -2.1406,-6.8281 0,-2.7891 0.71094,-5.0664 2.1406,-6.8281 1.4258,-1.7695 3.2539,-2.6562 5.4844,-2.6562 1.2383,0 2.3359,0.25 3.2969,0.75 0.96875,0.5 1.8477,1.2773 2.6406,2.3281 z m -3.7969,11.688 c 1.2266,0 2.1641,-0.44531 2.8125,-1.3438 0.65625,-0.90625 0.98438,-2.2188 0.98438,-3.9375 0,-1.7187 -0.32812,-3.0312 -0.98438,-3.9375 -0.64844,-0.90625 -1.5859,-1.3594 -2.8125,-1.3594 -1.2305,0 -2.1719,0.45312 -2.8281,1.3594 -0.64844,0.90625 -0.96875,2.2188 -0.96875,3.9375 0,1.7187 0.32031,3.0312 0.96875,3.9375 0.65625,0.89844 1.5977,1.3438 2.8281,1.3438 z"
         id="path17"
         inkscape:connector-curvature="0" />
    </symbol>
    <symbol
       id="j"
       overflow="visible"
       style="overflow:visible">
      <path
         d="m 12.375,-3.7188 c 1.2383,0 2.1797,-0.44531 2.8281,-1.3438 0.64453,-0.90625 0.96875,-2.2188 0.96875,-3.9375 0,-1.7187 -0.32422,-3.0312 -0.96875,-3.9375 -0.64844,-0.90625 -1.5898,-1.3594 -2.8281,-1.3594 -1.2422,0 -2.1875,0.46094 -2.8438,1.375 -0.65625,0.90625 -0.98438,2.2148 -0.98438,3.9219 0,1.6992 0.32812,3.0078 0.98438,3.9219 0.65625,0.90625 1.6016,1.3594 2.8438,1.3594 z m -3.8281,-11.688 c 0.78906,-1.0508 1.6719,-1.8281 2.6406,-2.3281 0.9687,-0.5 2.0781,-0.75 3.3281,-0.75 2.2266,0 4.0547,0.88672 5.4844,2.6562 1.4258,1.7617 2.1406,4.0391 2.1406,6.8281 0,2.7812 -0.71484,5.0586 -2.1406,6.8281 -1.4297,1.7617 -3.2578,2.6406 -5.4844,2.6406 -1.25,0 -2.3594,-0.25 -3.3281,-0.75 -0.9687,-0.5 -1.8516,-1.2734 -2.6406,-2.3281 V -6e-4 H 2.7657 v -25.078 h 5.7812 z"
         id="path20"
         inkscape:connector-curvature="0" />
    </symbol>
    <symbol
       id="e"
       overflow="visible"
       style="overflow:visible">
      <path
         d="m 0.40625,-18.047 h 5.7656 l 4.8438,12.25 4.125,-12.25 h 5.7812 l -7.5938,19.75 c -0.76172,2.0078 -1.6523,3.4141 -2.6719,4.2188 -1.0117,0.80078 -2.3516,1.2031 -4.0156,1.2031 H 3.29675 V 3.328 h 1.8125 c 0.97656,0 1.6875,-0.15625 2.125,-0.46875 0.44531,-0.30469 0.79688,-0.85938 1.0469,-1.6719 l 0.15625,-0.5 z"
         id="path23"
         inkscape:connector-curvature="0" />
    </symbol>
    <symbol
       id="i"
       overflow="visible"
       style="overflow:visible">
      <path
         d="m 0.15625,-24.062 h 22.172 v 4.6875 h -7.9688 V 5e-4 h -6.2031 v -19.375 h -8 z"
         id="path26"
         inkscape:connector-curvature="0" />
    </symbol>
    <symbol
       id="h"
       overflow="visible"
       style="overflow:visible">
      <path
         d="M 20.922,-10.984 V 0 h -5.8125 v -8.4062 c 0,-1.5625 -0.03906,-2.6328 -0.10938,-3.2188 -0.0625,-0.59375 -0.18359,-1.0312 -0.35938,-1.3125 -0.21875,-0.375 -0.52344,-0.66406 -0.90625,-0.875 -0.38672,-0.20703 -0.82812,-0.3125 -1.3281,-0.3125 -1.1992,0 -2.1406,0.46484 -2.8281,1.3906 -0.6875,0.92969 -1.0312,2.2148 -1.0312,3.8594 V 0 h -5.7812 v -18.047 h 5.7812 v 2.6406 c 0.86328,-1.0508 1.7852,-1.8281 2.7656,-2.3281 0.97656,-0.5 2.0547,-0.75 3.2344,-0.75 2.082,0 3.6641,0.64062 4.75,1.9219 1.082,1.2812 1.625,3.1406 1.625,5.5781 z"
         id="path29"
         inkscape:connector-curvature="0" />
    </symbol>
    <symbol
       id="u"
       overflow="visible"
       style="overflow:visible">
      <path
         d="m 15.047,-3.0625 c -0.79297,1.0547 -1.668,1.8281 -2.625,2.3281 -0.96094,0.49219 -2.0625,0.73438 -3.3125,0.73438 -2.2109,0 -4.0312,-0.86328 -5.4688,-2.5938 -1.4375,-1.7383 -2.1562,-3.9531 -2.1562,-6.6406 0,-2.6953 0.71875,-4.9062 2.1562,-6.625 1.4375,-1.7266 3.2578,-2.5938 5.4688,-2.5938 1.25,0 2.3516,0.25 3.3125,0.75 0.95703,0.49219 1.832,1.2656 2.625,2.3281 v -2.6719 h 5.7969 v 16.219 c 0,2.9062 -0.91797,5.125 -2.75,6.6562 -1.8242,1.5312 -4.4766,2.2969 -7.9531,2.2969 -1.1367,0 -2.2305,-0.089844 -3.2812,-0.26562 C 5.8049,6.69149 4.7502,6.42977 3.6877,6.07821 v -4.5 c 1.0078,0.58203 2,1.0156 2.9688,1.2969 0.9688,0.2813 1.9414,0.42188 2.9219,0.42188 1.8828,0 3.2656,-0.41406 4.1406,-1.2344 0.88281,-0.82422 1.3281,-2.1172 1.3281,-3.8906 z m -3.7969,-11.234 c -1.1992,0 -2.1328,0.44531 -2.7969,1.3281 -0.66797,0.875 -1,2.1211 -1,3.7344 0,1.6562 0.32031,2.9141 0.96875,3.7656 0.64453,0.85547 1.5859,1.2812 2.8281,1.2812 1.1953,0 2.1289,-0.4375 2.7969,-1.3125 0.66406,-0.88281 1,-2.1289 1,-3.7344 0,-1.6133 -0.33594,-2.8594 -1,-3.7344 -0.66797,-0.88281 -1.6016,-1.3281 -2.7969,-1.3281 z"
         id="path32"
         inkscape:connector-curvature="0" />
    </symbol>
    <symbol
       id="g"
       overflow="visible"
       style="overflow:visible">
      <path
         d="m 2.5781,-7.0312 v -11.016 H 8.375 v 1.7969 c 0,0.98047 -0.00781,2.2109 -0.015625,3.6875 -0.011719,1.4805 -0.015625,2.4648 -0.015625,2.9531 0,1.4609 0.035156,2.5078 0.10938,3.1406 0.082031,0.63672 0.21094,1.1016 0.39062,1.3906 0.23828,0.375 0.54688,0.66797 0.92188,0.875 0.38281,0.19922 0.82812,0.29688 1.3281,0.29688 1.1953,0 2.1406,-0.45703 2.8281,-1.375 0.6875,-0.92578 1.0312,-2.2109 1.0312,-3.8594 v -8.9062 h 5.7656 v 18.047 h -5.7656 v -2.6094 c -0.875,1.0547 -1.7969,1.8281 -2.7656,2.3281 -0.9687,0.5 -2.043,0.75 -3.2188,0.75 -2.0859,0 -3.6719,-0.64062 -4.7656,-1.9219 -1.0859,-1.2812 -1.625,-3.1406 -1.625,-5.5781 z"
         id="path35"
         inkscape:connector-curvature="0" />
    </symbol>
    <symbol
       id="t"
       overflow="visible"
       style="overflow:visible">
      <path
         d="m 3.0312,-24.062 h 6.2031 v 8.7812 l 8.9375,-8.7812 h 7.2031 l -11.578,11.391 12.781,12.672 H 18.7967 L 9.2342,-9.4678 V 10e-4 H 3.0311 Z"
         id="path38"
         inkscape:connector-curvature="0" />
    </symbol>
    <symbol
       id="s"
       overflow="visible"
       style="overflow:visible">
      <path
         d="M 2.7656,-25.078 H 8.5468 V 0 H 2.7656 Z"
         id="path41"
         inkscape:connector-curvature="0" />
    </symbol>
    <symbol
       id="r"
       overflow="visible"
       style="overflow:visible">
      <path
         d="m 14.641,-25.078 v 3.7969 h -3.1875 c -0.8125,0 -1.3828,0.14844 -1.7031,0.4375 -0.32422,0.29297 -0.48438,0.80859 -0.48438,1.5469 v 1.25 h 4.9375 v 4.125 H 9.26602 V 3e-4 h -5.7656 v -13.922 h -2.875 v -4.125 h 2.875 v -1.25 c 0,-1.9688 0.54688,-3.4219 1.6406,-4.3594 1.0938,-0.94531 2.7891,-1.4219 5.0938,-1.4219 z"
         id="path44"
         inkscape:connector-curvature="0" />
    </symbol>
    <symbol
       id="d"
       overflow="visible"
       style="overflow:visible">
      <path
         d="m 11.359,-14.359 c -1.2812,0 -2.2617,0.46094 -2.9375,1.375 -0.66797,0.91797 -1,2.2461 -1,3.9844 0,1.7305 0.33203,3.0547 1,3.9688 0.67578,0.91797 1.6562,1.375 2.9375,1.375 1.2578,0 2.2227,-0.45703 2.8906,-1.375 0.66406,-0.91406 1,-2.2383 1,-3.9688 0,-1.7383 -0.33594,-3.0664 -1,-3.9844 -0.66797,-0.91406 -1.6328,-1.375 -2.8906,-1.375 z m 0,-4.125 c 3.1016,0 5.5234,0.83984 7.2656,2.5156 1.75,1.6797 2.625,4 2.625,6.9688 0,2.9609 -0.875,5.2773 -2.625,6.9531 -1.7422,1.6797 -4.1641,2.5156 -7.2656,2.5156 -3.1172,0 -5.5547,-0.83594 -7.3125,-2.5156 -1.75,-1.6758 -2.625,-3.9922 -2.625,-6.9531 0,-2.9688 0.875,-5.2891 2.625,-6.9688 1.7578,-1.6758 4.1953,-2.5156 7.3125,-2.5156 z"
         id="path47"
         inkscape:connector-curvature="0" />
    </symbol>
    <symbol
       id="q"
       overflow="visible"
       style="overflow:visible">
      <path
         d="m 19.5,-15.047 c 0.72656,-1.1133 1.5938,-1.9609 2.5938,-2.5469 1.0078,-0.59375 2.1133,-0.89062 3.3125,-0.89062 2.0703,0 3.6484,0.64062 4.7344,1.9219 1.0938,1.2812 1.6406,3.1406 1.6406,5.5781 v 10.984 h -5.8125 v -9.4062 c 0.0078,-0.14453 0.01563,-0.28906 0.01563,-0.4375 0.0078,-0.15625 0.01563,-0.36719 0.01563,-0.64062 0,-1.2812 -0.1875,-2.207 -0.5625,-2.7812 -0.375,-0.57031 -0.98047,-0.85938 -1.8125,-0.85938 -1.0938,0 -1.9453,0.45312 -2.5469,1.3594 -0.59375,0.89844 -0.90234,2.1992 -0.92188,3.9062 v 8.8594 h -5.7969 v -9.4062 c 0,-2 -0.17188,-3.2852 -0.51562,-3.8594 -0.34375,-0.57031 -0.96094,-0.85938 -1.8438,-0.85938 -1.1055,0 -1.9609,0.45312 -2.5625,1.3594 -0.59375,0.90625 -0.89062,2.2031 -0.89062,3.8906 v 8.875 h -5.8125 v -18.047 h 5.8125 v 2.6406 c 0.70703,-1.0195 1.5195,-1.7852 2.4375,-2.2969 0.91406,-0.51953 1.9258,-0.78125 3.0312,-0.78125 1.25,0 2.3477,0.30469 3.2969,0.90625 0.95703,0.60547 1.6875,1.4492 2.1875,2.5312 z"
         id="path50"
         inkscape:connector-curvature="0" />
    </symbol>
    <symbol
       id="p"
       overflow="visible"
       style="overflow:visible">
      <path
         d="M 20.922,-10.984 V 0 h -5.8125 v -8.375 c 0,-1.582 -0.03906,-2.6641 -0.10938,-3.25 -0.0625,-0.59375 -0.18359,-1.0312 -0.35938,-1.3125 -0.21875,-0.375 -0.52344,-0.66406 -0.90625,-0.875 -0.38672,-0.20703 -0.82812,-0.3125 -1.3281,-0.3125 -1.1992,0 -2.1406,0.46484 -2.8281,1.3906 -0.6875,0.92969 -1.0312,2.2148 -1.0312,3.8594 V 0 h -5.7812 v -25.078 h 5.7812 v 9.6719 c 0.86328,-1.0508 1.7852,-1.8281 2.7656,-2.3281 0.97656,-0.5 2.0547,-0.75 3.2344,-0.75 2.082,0 3.6641,0.64062 4.75,1.9219 1.082,1.2812 1.625,3.1406 1.625,5.5781 z"
         id="path53"
         inkscape:connector-curvature="0" />
    </symbol>
    <symbol
       id="o"
       overflow="visible"
       style="overflow:visible">
      <path
         d="m 3.0312,-24.062 h 6.9219 l 8.75,16.5 v -16.5 h 5.8906 V 0 h -6.9375 l -8.75,-16.5 V 0 h -5.875 z"
         id="path56"
         inkscape:connector-curvature="0" />
    </symbol>
    <symbol
       id="n"
       overflow="visible"
       style="overflow:visible">
      <path
         d="m 3.0312,-24.062 h 10.297 c 3.0625,0 5.4102,0.68359 7.0469,2.0469 1.6328,1.3555 2.4531,3.293 2.4531,5.8125 0,2.5234 -0.82031,4.4648 -2.4531,5.8281 -1.6367,1.3555 -3.9844,2.0312 -7.0469,2.0312 H 9.2344 V 5e-4 H 3.0313 Z m 6.2031,4.5 v 6.7188 h 3.4375 c 1.1953,0 2.125,-0.28906 2.7812,-0.875 0.65625,-0.58203 0.98438,-1.4102 0.98438,-2.4844 0,-1.082 -0.32812,-1.9102 -0.98438,-2.4844 -0.65625,-0.58203 -1.5859,-0.875 -2.7812,-0.875 z"
         id="path59"
         inkscape:connector-curvature="0" />
    </symbol>
    <symbol
       id="m"
       overflow="visible"
       style="overflow:visible">
      <path
         d="m 2.7656,-18.047 h 5.7812 v 17.719 c 0,2.4141 -0.58594,4.2578 -1.75,5.5312 C 5.6406,6.4844 3.957,7.1251 1.7499,7.1251 H -1.0939 V 3.3282 h 1 c 1.0938,0 1.8438,-0.24609 2.25,-0.73438 0.40625,-0.49219 0.60938,-1.4648 0.60938,-2.9219 z m 0,-7.0312 h 5.7812 v 4.7031 H 2.7656 Z"
         id="path62"
         inkscape:connector-curvature="0" />
    </symbol>
    <symbol
       id="l"
       overflow="visible"
       style="overflow:visible">
      <path
         d="m 17.359,-17.484 v 4.7031 c -0.79297,-0.53125 -1.5859,-0.92578 -2.375,-1.1875 -0.78125,-0.25781 -1.6016,-0.39062 -2.4531,-0.39062 -1.6055,0 -2.8594,0.47656 -3.7656,1.4219 -0.89844,0.9375 -1.3438,2.25 -1.3438,3.9375 0,1.6797 0.44531,2.9922 1.3438,3.9375 0.90625,0.9375 2.1602,1.4062 3.7656,1.4062 0.90625,0 1.7656,-0.13281 2.5781,-0.40625 0.8125,-0.26953 1.5625,-0.66406 2.25,-1.1875 v 4.7188 c -0.90625,0.33594 -1.8242,0.58203 -2.75,0.75 -0.92969,0.16406 -1.8594,0.25 -2.7969,0.25 -3.2617,0 -5.8086,-0.83203 -7.6406,-2.5 -1.8359,-1.6758 -2.75,-4 -2.75,-6.9688 0,-2.9766 0.91406,-5.3008 2.75,-6.9688 1.832,-1.6758 4.3789,-2.5156 7.6406,-2.5156 0.94531,0 1.8789,0.08594 2.7969,0.25 0.91406,0.16797 1.832,0.41797 2.75,0.75 z"
         id="path65"
         inkscape:connector-curvature="0" />
    </symbol>
  </defs>
  <path
     inkscape:connector-curvature="0"
     id="path70"
     d="m 281.91389,559.93126 h -6.0742 c -1.5195,-1.3203 -3.0352,-2.6406 -4.4219,-4.0938 -3.4688,-3.7031 -9.1875,-4.1641 -13.199,-1.0547 -2.1602,1.4336 -4.8516,1.8203 -7.3281,1.0547 -2.1133,-0.39453 -2.8398,-1.9805 -3.5,-3.6953 v -0.39453 h 0.004 c -0.89844,-2.5234 -3.4102,-4.1055 -6.0742,-3.8281 l -8.8438,0.32812 h -1.6484 c -3.6953,0 -4.9492,-1.1875 -5.082,-4.8203 v -6.0742 l -0.004,0.004 c 0.0117,-1.0781 -0.16797,-2.1523 -0.52734,-3.168 -0.33203,-0.85547 -0.96484,-1.5586 -1.7812,-1.9805 -1.6367,-0.71094 -3.1016,-1.7695 -4.293,-3.1016 -1.1055,-1.3164 -2.6523,-2.1875 -4.3555,-2.4414 -2.0156,-0.25 -3.918,-1.0742 -5.4766,-2.3789 l -4.8203,-3.6953 c -2.9453,-2.1914 -6.3203,-3.7422 -9.8984,-4.5547 -2.0469,-0.46094 -2.5078,0 -2.707,1.9805 -0.19922,1.9805 0,2.1797 -0.32812,3.2344 h -0.004 c -0.14453,1.1953 -0.96875,2.1992 -2.1133,2.5742 -2.8477,1.1641 -6.0664,0.99609 -8.7773,-0.46094 -2.3086,-1.3008 -4.9531,-1.875 -7.5898,-1.6523 h -16.305 c -0.46094,0.0312 -0.92578,0.0312 -1.3867,0 -1.7617,-0.20312 -3.2227,-1.457 -3.6953,-3.168 -0.39453,-1.1211 -0.66016,-2.2461 -1.0547,-3.3672 -0.375,-2.4727 -2.6719,-4.1797 -5.1484,-3.8281 h -9.1094 c -1.0117,0.0898 -2.0273,0.0898 -3.0391,0 -2.5742,-0.39453 -3.5,-1.3203 -3.6953,-3.9609 -0.20312,-2.9219 -2.043,-5.4805 -4.75,-6.5977 -1.8398,-0.86719 -3.8438,-1.3164 -5.875,-1.3203 -3.8828,0.22656 -7.6016,-1.5742 -9.8359,-4.7539 -1.6328,-2.0195 -4.0156,-3.2812 -6.6016,-3.4961 l -3.433596,-0.52734 v -0.004 c -1.4688,-0.0273 -2.8359,-0.77344 -3.6523,-1.9961 -0.81641,-1.2266 -0.98047,-2.7734 -0.4375,-4.1406 0.41016,-2.2344 0.96094,-4.4375 1.6484,-6.6016 0,-0.98828 0.72656,-1.9141 0.92578,-2.9023 0.19922,-0.98828 0,-1.9805 -1.5195,-2.2461 -1.5195,-0.26562 -1.5195,0 -2.3086,0 -1.7812,0 -3.5625,0 -5.3477,-0.52734 -1.5,-0.0977 -2.9023,-0.78516 -3.8945,-1.9141 -1.7266,-2.3008 -3.9922,-4.1367 -6.6016,-5.3477 v -0.66016 l 4.5547,-0.66016 c 4.0938,-0.41406 7.6875,-2.9102 9.5078,-6.6016 1.2422,-2.5977 2.0469,-5.3867 2.375,-8.25 0.21875,-2.3906 0.75,-4.7422 1.582,-6.9961 3.918,-8.8008 7.964796,-17.449 12.144996,-25.941 h 0.004 c 3.4727,-6.5234 5.4531,-13.738 5.8086,-21.121 0,-3.3672 1.3867,-4.4883 4.8203,-4.6211 h -0.004 c 0.76953,0.0391 1.5391,0.0391 2.3086,0 0.99219,-0.11328 1.9648,-0.33594 2.9062,-0.66016 1.1211,-0.39453 2.1797,-1.0547 2.2461,-2.4414 0.0664,-1.3867 -1.0547,-2.0469 -2.1133,-2.5078 -0.63672,-0.27344 -1.3008,-0.47266 -1.9805,-0.59375 l -3.6953,-0.52734 c -2.5078,0 -3.4336,-1.5195 -2.8398,-3.9609 0.32812,-1.4531 0.98828,-2.7734 1.4531,-4.1602 1.0938,-2.7422 2.043,-5.5391 2.8359,-8.3828 1.1875,-5.082 1.9141,-10.23 2.9688,-15.312 1.0547,-5.082 1.9805,-8.6484 3.168,-13.203 h 0.004 c 0.51953,-1.625 1.3242,-3.1445 2.375,-4.4883 1.0977,-1.6641 3.3164,-2.1602 5.0156,-1.1211 1.7578,0.70703 3.1562,2.0859 3.8945,3.8281 1.3867,3.3008 2.5742,6.6016 3.8281,9.9688 0.72656,1.9141 1.3203,3.8281 2.0469,5.6758 0,0.79297 0.66016,1.7812 2.1797,1.8477 0.32422,-0.80469 0.54688,-1.6484 0.66016,-2.5078 0.27344,-4.5547 -0.63672,-9.1016 -2.6406,-13.203 -1.6484,-3.1016 -3.5,-6.0742 -5.2812,-9.043 -1.3984,-2.8438 -4.0703,-4.8555 -7.1953,-5.4102 -1.8477,-0.26953 -3.3242,-1.6719 -3.6953,-3.5 -0.69531,-2.3477 -0.0352,-4.8867 1.7148,-6.6016 1.7891,-1.7266 2.7891,-4.1133 2.7734,-6.5977 0.32812,-3.6953 0.79297,-7.3945 1.2539,-11.09 0.46094,-3.6953 1.0547,-6.6016 1.3203,-10.363 0.0664,-1.6172 -0.0664,-3.2344 -0.39453,-4.8203 -0.15234,-1.3047 -1.1992,-2.3242 -2.5078,-2.4414 -1.1406,-0.15625 -2.2969,-0.15625 -3.4336,0 -4.7969,0.82812 -9.6289,-1.2422 -12.344,-5.2812 l -1.5859,-2.3086 c -2.3789,-3.8398 -4.2617,-7.9648 -5.6094,-12.277 -1.1445,-3.6484 -3.0312,-7.0195 -5.543,-9.9023 -2.2461,-2.5742 -4.421896,-5.2148 -6.601596,-7.9883 v 0.004 c -1.0156,-1.4727 -1.8789,-3.043 -2.5742,-4.6875 -0.75,-0.97266 -0.75,-2.3281 0,-3.3008 0.91016,-0.64062 2.125,-0.64062 3.0352,0 1.0547,0.46094 2.0469,1.0547 3.1016,1.5859 1.054696,0.52734 2.441396,0.52734 2.507796,-1.4531 h 0.004 c 0.26953,-3.2891 -0.75,-6.5547 -2.839796,-9.1094 -1.9141,-2.375 -1.8477,-3.5 0.46094,-5.4805 0.527336,-0.46094 1.121096,-0.85937 1.585896,-1.3203 v 0.004 c 0.39062,-0.48047 0.74219,-0.98828 1.0547,-1.5195 -1.0664,-0.25781 -2.1445,-0.45312 -3.234396,-0.59375 h -4.6875 c -1.5508,-0.0781 -3.0977,-0.27734 -4.6172,-0.59375 -1.3828,-0.14844 -2.6484,-0.85156 -3.5039,-1.9453 -0.85938,-1.0938 -1.2383,-2.4883 -1.0508,-3.8633 -0.125,-1.1641 -0.125,-2.3359 0,-3.5 0.46094,-2.1797 1.1211,-4.3555 1.6484,-6.6016 0.52734,-2.2461 0,-3.3672 -2.707,-2.9688 -2.707,0.39453 -3.5,0.79297 -5.2812,1.0547 -1.7812,0.26562 -3.2344,0.46094 -4.2891,-1.0547 -1.0547,-1.5195 0,-2.8398 0.32812,-4.1602 0.32812,-1.3203 1.1211,-2.0469 1.5859,-3.1016 0.46094,-1.0547 0,-2.1133 -1.3203,-2.1797 v 0.004 c -1.0742,-0.14062 -2.1602,-0.14062 -3.2344,0 l -9.9688,2.2461 c -1.9141,0.39453 -2.7734,0 -3.0352,-2.1133 v -0.004 c -0.0547,-1.0117 -0.0547,-2.0234 0,-3.0352 0,-4.0273 -1.1211,-5.2812 -5.082,-5.8086 -5.125,-0.66016 -9.9922,-2.6406 -14.125,-5.7422 -1.5859,-1.1875 -3.0352,-2.6406 -4.6211,-3.8945 -2.6289,-2.3672 -6.1016,-3.582 -9.636704,-3.3672 -2.1133,0 -4.1602,0.52734 -6.2031,0.85938 l -3.6953,0.59375 c -1.5977,0.24219 -3.1328,-0.71094 -3.6328,-2.2461 -0.39453,-1.0547 -0.79297,-2.1797 -1.1211,-3.3008 v 0.004 c -0.30078,-1.3633 -0.67578,-2.707 -1.1211,-4.0273 -0.39844,-1.0898 -1.0547,-2.0625 -1.9141,-2.8398 -2.5742,-2.0469 -5.3477,-3.8945 -8.0547,-5.875 v -3.2344 c 2.0391,-1.0586 4.3047,-1.6016 6.6016,-1.582 2.0117,-0.0195 4.0156,-0.17578 6.0078,-0.46094 0.92188,-0.12891 1.8164,-0.42188 2.6367,-0.85938 1.3867,-0.72656 1.4531,-1.9141 0,-2.5742 -0.87109,-0.33984 -1.7773,-0.58203 -2.7031,-0.72656 -3.6289,-0.46094 -4.8203,-1.9141 -4.4219,-5.6094 0.04297,-0.76953 0.04297,-1.543 0,-2.3125 0.25391,-2.125 -1.1484,-4.0938 -3.2344,-4.5547 -1.5742,-0.43359 -2.9922,-1.3047 -4.0938,-2.5078 v -2.3086 c 0.73438,-1.6055 1.3516,-3.2578 1.8477,-4.9531 0.45703,-3.6914 3.543,-6.4961 7.2617,-6.5977 3.0352,0 6.0742,0 9.043,-0.39453 v -0.004 c 1.6133,-0.0703 3.1992,-0.42969 4.6875,-1.0547 1.8633,-0.85156 4.007804,-0.85156 5.871104,0 1.7148,0.66016 3.4336,1.4531 5.082,2.2461 l 0.004,-0.004 c 1.8906,0.91797 3.9688,1.3906 6.0703,1.3867 h 11.418 c 1.1875,0.11328 2.332,-0.44922 2.9727,-1.4492 l 1.5195,-2.0469 h -0.004 c 1.332,-1.6914 3.3984,-2.625 5.5469,-2.5078 h 10.23 c 1.8359,0.14844 3.6523,0.50391 5.4141,1.0547 2.168,0.64062 3.75,2.5078 4.0234,4.7539 0,1.3867 0.32812,2.7734 0.66016,4.1602 v -0.004 c 0.38672,2.4453 1.0508,4.8359 1.9805,7.1289 1.7305,3.2422 4.9609,5.4141 8.6172,5.7852 3.6562,0.37109 7.257796,-1.1055 9.601596,-3.9375 1.7812,-2.1797 2.9688,-2.5078 5.4141,-1.1211 2.4414,1.3867 3.4336,2.1133 5.082,3.3008 1.75,1.2188 3.957,1.582 6.0039,0.98828 0.83203,-0.18359 1.6484,-0.42578 2.4453,-0.72656 2.6367,-1.1211 5.6719,-0.76953 7.9844,0.92578 l 3.8281,2.6406 c 1.9336,1.418 4.2148,2.2852 6.6016,2.5078 1.2305,0.18359 2.4688,-0.28906 3.2656,-1.2461 0.79688,-0.96094 1.0352,-2.2617 0.62891,-3.4414 -0.46094,-1.4727 -1.0352,-2.9062 -1.7148,-4.2891 -1.1875,-2.3711 -1.7344,-5.0117 -1.5859,-7.6562 0,-1.7148 0,-3.4336 0.39453,-5.082 h 0.004 c 0.0977,-5.6055 -0.41016,-11.207 -1.5195,-16.699 -0.8125,-4.3633 -1.3398,-8.7734 -1.5859,-13.203 0.0312,-3.0469 -0.99609,-6.0078 -2.9023,-8.3828 -0.96484,-1.1133 -1.5625,-2.4961 -1.7148,-3.9609 -0.18359,-3.0625 0.75781,-6.0898 2.6367,-8.5156 0.60547,-0.9375 1.5703,-1.5898 2.668,-1.8008 1.0938,-0.21094 2.2305,0.03516 3.1406,0.67969 1.2852,0.74609 2.4805,1.6289 3.5664,2.6406 1.5664,1.5312 3.5352,2.582 5.6758,3.0352 2.0469,0.40625 4.1211,0.67188 6.207,0.79297 3.6289,0 4.2891,0.59375 5.082,4.0938 0,0.59375 0,1.1875 0.32812,1.8477 0.35156,2.2461 0.68359,4.4453 0.98828,6.6016 h 0.004 c 0.1875,2.6953 1.832,5.0742 4.2891,6.2031 2.1289,0.99219 4.3359,1.8086 6.6016,2.4414 4.7539,1.2539 9.5039,2.2461 14.258,3.3672 3.6602,0.69531 7.1562,2.0859 10.297,4.0938 2.668,1.8711 6.0195,2.4727 9.1719,1.6484 l 7.8555,-2.1133 c 5.6758,-1.5859 6.6016,-2.8398 6.6016,-8.7109 v -8.8438 c -0.15625,-2.4297 1.25,-4.6836 3.5,-5.6133 2.1133,-1.0117 4.3242,-1.8086 6.5977,-2.375 3.5625,-0.79297 7.1953,-1.3867 10.758,-1.8477 3.5625,-0.46094 7.7227,-0.66016 11.551,-1.2539 h 0.004 c 6.043,-1.1172 11.879,-3.168 17.293,-6.0742 1.7852,-0.68359 3.2812,-1.9648 4.2227,-3.6289 0.89062,-2.2188 2.9102,-3.7852 5.2812,-4.0938 0.99219,-0.17969 1.9609,-0.44531 2.9062,-0.79297 1.5195,-0.59375 1.8477,-1.3867 1.2539,-2.9023 -0.33984,-0.78906 -0.75781,-1.543 -1.2539,-2.2461 -1.6094,-2.0234 -2.1953,-4.6797 -1.5859,-7.1914 0.1875,-0.91797 0.42969,-1.8203 0.72656,-2.707 1.0234,-2.6953 1.4922,-5.5703 1.3867,-8.4492 -0.14844,-1.3164 -0.14844,-2.6445 0,-3.9609 0.98828,-5.2812 1.91411,-10.562 3.0352,-15.777 0.41797,-3.9258 3.8477,-6.832 7.7891,-6.5977 h 2.57421 10.23 c 3.6289,0 6.6016,-0.52734 9.7031,-0.79297 h 6.6016 c 1.7773,1.3086 2.9453,3.2891 3.2344,5.4766 0.59375,2.4414 1.1211,4.8203 1.7148,7.2617 0.31641,1.8984 1.8516,3.3555 3.7656,3.5664 1.6328,0.17578 2.9258,1.4648 3.1016,3.1016 v 1.5859 c 0.46094,1.9805 0.98828,2.375 2.9023,1.7148 1.9141,-0.66016 3.3008,-1.3867 4.9492,-2.0469 h 0.004 c 1.2773,-0.57031 2.6016,-1.0312 3.957,-1.3867 1.8945,-0.51172 3.8516,0.56641 4.4258,2.4414 0.39062,1.4102 0.69922,2.8438 0.92188,4.293 0.19922,1.375 0.55469,2.7266 1.0547,4.0234 2.0469,4.1602 4.0273,8.4492 6.6016,12.41 3.3047,6.2227 9.3438,10.527 16.305,11.617 1.4492,0.23438 2.8828,0.5625 4.2891,0.99219 1.8477,-0.02344 3.6172,0.72656 4.8828,2.0664 1.2656,1.3438 1.9141,3.1523 1.7852,4.9961 v 2.5742 4.1602 -0.0039 c 0.0352,4.043 3.2852,7.3203 7.3281,7.3945 2.5078,0.39453 5.082,0.79297 7.5898,1.3203 1.7852,0.49609 3.6836,-0.22656 4.6875,-1.7852 1.3164,-2.0195 2.2734,-4.2539 2.8359,-6.5977 0.46094,-1.3867 0.79297,-2.8398 1.3203,-4.2227 0.52734,-1.3867 0.79297,-1.1875 1.1875,-1.1875 0.39453,0 1.0547,0.59375 1.2539,1.1211 v -0.0039 c 0.65625,1.75 1.207,3.5352 1.6523,5.3477 0.85156,4.125 1.0078,8.3633 0.46094,12.543 -0.46484,2.832 1.1406,5.5977 3.8281,6.5977 l 2.0469,1.0547 7.9219,3.9609 v 0.0039 c 2.7891,1.3984 5.1758,3.4883 6.9297,6.0703 1.1094,1.6797 2.1211,3.4219 3.0352,5.2148 0.64453,1.4766 2.1602,2.3789 3.7617,2.2461 h 5.8086 c 3.2852,-0.0469 6.5273,0.72266 9.4414,2.2422 3.2148,1.5547 6.7266,2.4102 10.297,2.5078 3.6289,0 7.2617,0.72656 10.891,1.1875 2.4023,0.23438 4.3789,1.9961 4.8828,4.3594 0.59375,2.1797 1.1211,4.3555 1.7148,6.6016 l 0.004,-0.004 c 0.42578,1.5664 0.93359,3.1094 1.5156,4.6211 0.49609,1.3672 1.7812,2.2891 3.2344,2.3125 l 5.082,0.46094 h 0.004 c 4.1992,0.082 8.293,1.3398 11.812,3.6289 3.1094,2.4023 7.3125,2.8125 10.824,1.0586 1.3984,-0.77734 3.0938,-0.77734 4.4883,0 0.84375,0.41016 1.625,0.94531 2.3125,1.582 2.1797,2.1406 5.0156,3.4883 8.0508,3.8281 1.5977,0.26562 3.207,0.44141 4.8203,0.52734 h 4.8828 c 3.2734,-0.28125 6.2539,1.8867 7,5.0859 v 4.6875 c 0,0.39453 0,0.72656 -0.32812,1.1211 h -0.004 c -0.67969,3.7109 -3.1484,6.8516 -6.6016,8.3828 -0.85938,0.39453 -1.6484,0.92578 -2.5078,1.1875 -2.4648,0.74609 -4.2656,2.8594 -4.6211,5.4102 -0.92578,3.9609 -1.9805,7.8555 -2.7734,11.816 h 0.004 c -0.98828,5.1992 -2.6758,10.238 -5.0195,14.984 -2.2852,4.4297 -3.25,9.4258 -2.7695,14.391 0.35938,4.668 -0.41016,9.3555 -2.2461,13.66 -0.90234,2.2383 -1.1797,4.6836 -0.79297,7.0625 0.125,1.3203 0.125,2.6445 0,3.9609 0.10547,4.0469 -2.6562,7.6055 -6.5977,8.5156 -3.0898,1.1016 -6.3984,1.418 -9.6367,0.92578 -1.7461,-0.32812 -3.5117,-0.54688 -5.2812,-0.66016 -1.0156,-0.19531 -2.0664,0.0234 -2.9219,0.60547 -0.85547,0.58203 -1.4414,1.4805 -1.6328,2.4961 -0.59375,1.6484 -1.1211,3.4336 -1.5859,5.1484 -0.46094,1.7148 -1.2539,5.2812 -2.0469,7.9219 -0.27734,1.2812 -0.81641,2.4961 -1.582,3.5625 -3.5,5.1094 -8.5781,8.9375 -14.457,10.891 -1.6914,0.42578 -3.043,1.7031 -3.5625,3.3672 -0.86719,2.2578 -1.3359,4.6445 -1.3867,7.0625 0,3.9609 -0.59375,4.5547 -4.4219,5.7422 h -1.1211 c -2.8281,0.26953 -5.168,2.3164 -5.8086,5.082 -0.92578,2.8398 -1.7812,5.6094 -2.5078,8.4492 h -0.004 c -0.86719,3.4648 -2.4648,6.707 -4.6836,9.5039 -1.5742,2.0781 -2.9648,4.2891 -4.1602,6.6016 -0.54688,1.1133 -0.85938,2.3281 -0.92188,3.5664 -0.19141,0.97656 0.0351,1.9883 0.625,2.7891 0.58984,0.80469 1.4844,1.3242 2.4766,1.4336 1.6016,0.1875 3.2188,0.1875 4.8164,0 2.3828,0.043 4.3828,-1.7812 4.5547,-4.1562 0.42578,-2.1836 0.71094,-4.3867 0.85938,-6.6016 -0.0273,-2.4805 1.4258,-4.7422 3.6953,-5.7422 h 0.66016 c 5.2617,-1.9883 10.902,-2.7539 16.504,-2.2461 1.2188,0.008 2.2891,0.8125 2.6367,1.9805 0.30469,0.96484 0.48047,1.9609 0.53125,2.9727 0.23047,4.1602 -0.23828,8.332 -1.3867,12.34 -0.79297,2.9023 -0.52734,3.4336 2.2461,4.5547 l 3.1016,1.1211 v 0.004 c 1.0781,0.42578 2.1367,0.91016 3.168,1.4492 1.3398,0.70703 2.1602,2.1172 2.1094,3.6328 0.22266,2.2969 -0.875,4.5234 -2.8359,5.7422 l -2.1797,1.3203 c -2.4648,1.7695 -4.0273,4.5273 -4.2812,7.5508 -0.25391,3.0195 0.82812,6.0039 2.9609,8.1562 l 0.79297,0.52734 v 0.004 c 1.9531,1.0039 3.4922,2.6641 4.3555,4.6836 1.1211,2.3086 2.5078,4.4883 3.5625,6.6016 h 0.004 c 0.70703,1.543 1.2383,3.1562 1.582,4.8203 0.59375,2.918 0.0781,5.957 -1.4531,8.5117 -1.1406,2.4062 -3.6133,3.8867 -6.2695,3.7656 -1.625,-0.0898 -3.2578,-0.0898 -4.8828,0 -2.0039,0.21875 -3.9883,0.57031 -5.9414,1.0547 -1.6328,0.37891 -3.0234,1.4336 -3.8281,2.9023 -1.8594,3.2227 -1.4336,7.2734 1.0547,10.035 3.0312,3.3359 6.5742,6.1641 10.496,8.3828 1.5664,0.82422 2.9922,1.8945 4.2227,3.168 1.2773,0.91406 2.0664,2.3633 2.1445,3.9297 0.0742,1.5703 -0.56641,3.0859 -1.7461,4.125 -1.0547,1.4531 -2.375,2.707 -3.4336,4.0938 v -0.004 c -4,4.6406 -5.8906,10.742 -5.2148,16.832 0.19141,2.1914 1.293,4.2031 3.0391,5.543 1.8477,1.3867 3.7617,2.707 5.8086,3.8945 2.0469,1.1875 6.0742,3.2344 8.8438,5.2148 2.8047,2.2305 6.6641,2.5938 9.8359,0.92578 1.2539,-0.59375 2.5742,-1.1211 3.8945,-1.5859 1.332,-0.51562 2.8359,-0.29297 3.957,0.59375 2.8164,2.1562 3.4297,6.1484 1.3867,9.043 -1.0586,1.3516 -2.2773,2.5703 -3.6289,3.6328 -5.0234,3.9102 -9.625,8.3359 -13.73,13.199 -3.3008,4.0586 -7.5078,7.2891 -12.277,9.4414 -1.9258,0.84375 -3.7266,1.957 -5.3477,3.3008 -3.5625,2.9688 -7.0625,6.0742 -10.363,9.3711 h 0.004 c -2.6367,2.4648 -4.6094,5.5508 -5.7461,8.9766 -0.68359,2.1758 -2.3438,3.9102 -4.4883,4.6875 -5.0039,2.1836 -10.383,3.3906 -15.84,3.5625 -7.9414,-0.0508 -15.836,-1.25 -23.434,-3.5625 -0.59766,-0.14062 -1.1641,-0.41406 -1.6484,-0.79297 -2.7695,-2.0039 -5.7344,-3.7305 -8.8438,-5.1484 -2.1289,-1.1094 -4.1211,-2.4609 -5.9414,-4.0273 -2.1875,-2.1719 -4.793,-3.8789 -7.6562,-5.0156 -3.3672,-1.2539 -6.6016,-2.375 -10.031,-3.6953 h -0.004 c -1.9375,-1.0312 -4.2656,-1.0312 -6.2031,0 -2.9922,1.6797 -6.6445,1.6797 -9.6367,0 -1.5312,-0.71094 -2.918,-1.6953 -4.0938,-2.9062 -2.0781,-2.2539 -4.9883,-3.5625 -8.0508,-3.6289 -0.92578,-0.0703 -1.8516,-0.0703 -2.7734,0 -1.9023,0.19922 -3.7617,-0.63281 -4.8867,-2.1797 -1.0781,-1.4336 -2.2695,-2.7773 -3.5625,-4.0234 -0.99219,-0.97656 -2.2188,-1.6836 -3.5664,-2.0469 -4.0664,-0.98828 -8.3633,-0.19531 -11.812,2.1758 -1.5195,1.0742 -2.9141,2.3164 -4.1602,3.6992 -4.4375,4.9297 -9.8867,8.8477 -15.973,11.484 l -10.562,5.0156 c -1.8711,0.83594 -3.3047,2.4141 -3.9609,4.3555 -0.39844,1.0977 -0.70703,2.2227 -0.92188,3.3672 -0.66016,3.5625 -1.3203,7.1953 -1.7812,10.824 -0.32812,2.9375 -0.48438,5.8906 -0.46484,8.8477 0,3.9609 0,7.9219 0.32812,11.883 l 0.004,-0.004 c 0.12891,0.85547 0.12891,1.7227 0,2.5742 -0.15234,0.65625 -0.55469,1.2227 -1.1211,1.5859 -2.4883,1.4492 -5.3086,2.2227 -8.1875,2.2422 -1.0156,-0.0547 -2.0312,0.125 -2.9688,0.52734 -1.1797,0.55078 -2.2852,1.2344 -3.3008,2.0469 -1.4531,1.1875 -2.707,2.3125 -3.9609,3.4336 z" />
</svg>
